<svg width="82" height="79" viewBox="0 0 82 79" fill="none" xmlns="http://www.w3.org/2000/svg">
<path d="M4.22009 44.92H12.0401C18.6001 44.92 23.7601 45.01 23.7601 52.97C23.7601 56.65 22.6901 59.95 18.2701 60.37V60.7C23.2001 60.7 23.7601 64.33 23.7601 68.61C23.7601 77.73 20.2201 78.05 12.0401 78.05H4.22009V44.92ZM11.9401 58.36C14.3601 58.22 16.0301 59.01 16.0301 54.03C16.0301 50.77 15.7501 49.42 11.9401 49.66V58.36ZM11.9401 73.29C16.0801 73.66 16.0301 71.29 16.0301 67.85C16.0301 63.15 15.1901 63.11 11.9401 63.11V73.29Z" fill="#004B91"/>
<path d="M45.0701 76.37C44.2301 77.3 43.1201 77.91 41.9101 78.23C40.7501 78.6 39.4901 78.7 38.3701 78.7C33.3001 78.7 30.4601 76.61 30.4601 69.02V53.95C30.4601 46.37 35.1101 44.27 40.2301 44.27C46.4601 44.27 49.9501 46.78 50.0501 53.3L50.0001 56.79H42.2801V52.18C42.2801 50.83 41.8601 49.57 40.2301 49.57C38.6001 49.57 38.1801 50.83 38.1801 52.18V70.79C38.1801 72.14 38.5501 73.4 40.2301 73.4C41.8601 73.4 42.2801 72.14 42.2801 70.79V66.37H39.3501V61.35H50.0001V78.05H45.4901L45.0701 76.37Z" fill="#004B91"/>
<path d="M76.2401 65.15V69.52C76.2401 75.71 72.9401 78.69 66.4201 78.69C61.3001 78.69 56.7001 76.6 56.7001 69.01V53.94C56.7001 46.36 61.3101 44.26 66.4201 44.26C72.0501 44.26 76.2401 45.93 76.2401 53.1V56.73H68.5201V52.17C68.5201 50.82 68.1001 49.56 66.4301 49.56C64.8501 49.56 64.4301 50.82 64.4301 52.17V70.78C64.4301 72.13 64.8501 73.39 66.4301 73.39C68.1001 73.39 68.5201 72.13 68.5201 70.78L68.5701 65.15H76.2401Z" fill="#004B91"/>
<path d="M1 0V78.16" stroke="#004B91" stroke-width="2"/>
<path d="M27.36 0V78.16" stroke="#004B91" stroke-width="2"/>
<path d="M53.41 0V78.16" stroke="#004B91" stroke-width="2"/>
<path d="M80.0801 0V78.16" stroke="#004B91" stroke-width="2"/>
</svg>